<?xml version="1.0" encoding="UTF-8" standalone="no"?>
<!-- Created with Inkscape (http://www.inkscape.org/) -->

<svg
   width="64.822823mm"
   height="64.822838mm"
   viewBox="0 0 64.822823 64.822838"
   version="1.1"
   id="svg1"
   xmlns:inkscape="http://www.inkscape.org/namespaces/inkscape"
   xmlns:sodipodi="http://sodipodi.sourceforge.net/DTD/sodipodi-0.dtd"
   xmlns="http://www.w3.org/2000/svg"
   xmlns:svg="http://www.w3.org/2000/svg">
  <sodipodi:namedview
     id="namedview1"
     pagecolor="#505050"
     bordercolor="#eeeeee"
     borderopacity="1"
     inkscape:showpageshadow="0"
     inkscape:pageopacity="0"
     inkscape:pagecheckerboard="0"
     inkscape:deskcolor="#d1d1d1"
     inkscape:document-units="mm"
     inkscape:zoom="0.2102413"
     inkscape:cx="397.16269"
     inkscape:cy="561.25984"
     inkscape:window-width="1344"
     inkscape:window-height="735"
     inkscape:window-x="0"
     inkscape:window-y="25"
     inkscape:window-maximized="0"
     inkscape:current-layer="layer1" />
  <defs
     id="defs1" />
  <g
     inkscape:label="Ebene 1"
     inkscape:groupmode="layer"
     id="layer1"
     transform="translate(-105.083,-148.5)">
    <g
       inkscape:label="QR Code: https://www.meetup.com/software-crafters-vienna/"
       transform="matrix(0.264583,0,0,0.264583,105.083,148.5)"
       id="g3">
      <rect
         x="0"
         y="0"
         width="245"
         height="245"
         style="fill:#ffffff;stroke:none"
         id="rect2" />
      <g
         style="fill:#000000;stroke:none"
         id="g2">
        <path
           d="m 218.75,225 h -2.5 c -0.69036,0 -1.25,-0.55964 -1.25,-1.25 v -7.5 c 0,-0.69036 0.55964,-1.25 1.25,-1.25 h 2.5 c 0.69036,0 1.25,0.55964 1.25,1.25 v 7.5 c 0,0.69036 -0.55964,1.25 -1.25,1.25 z m -25,0 h -17.5 c -0.69036,0 -1.25,-0.55964 -1.25,-1.25 v -2.5 c 0,-0.69036 0.55964,-1.25 1.25,-1.25 h 2.5 c 0.69036,0 1.25,-0.55964 1.25,-1.25 v -2.5 c 0,-0.69036 0.55964,-1.25 1.25,-1.25 h 2.5 c 0.69036,0 1.25,0.55964 1.25,1.25 v 2.5 c 0,0.69036 0.55964,1.25 1.25,1.25 h 2.5 c 0.69036,0 1.25,-0.55964 1.25,-1.25 v -2.5 c 0,-0.69036 0.55964,-1.25 1.25,-1.25 h 2.5 c 0.69036,0 1.25,0.55964 1.25,1.25 v 7.5 c 0,0.69036 -0.55964,1.25 -1.25,1.25 z m -45,0 h -2.5 c -0.69036,0 -1.25,-0.55964 -1.25,-1.25 v -7.5 c 0,-0.69036 0.55964,-1.25 1.25,-1.25 h 2.5 c 0.69036,0 1.25,0.55964 1.25,1.25 v 7.5 c 0,0.69036 -0.55964,1.25 -1.25,1.25 z m -25,0 h -2.5 c -0.69036,0 -1.25,-0.55964 -1.25,-1.25 v -2.5 c 0,-0.69036 -0.55964,-1.25 -1.25,-1.25 h -2.5 c -0.69036,0 -1.25,-0.55964 -1.25,-1.25 v -2.5 c 0,-0.69036 0.55964,-1.25 1.25,-1.25 h 2.5 c 0.69036,0 1.25,-0.55964 1.25,-1.25 v -17.5 c 0,-0.69036 0.55964,-1.25 1.25,-1.25 h 2.5 c 0.69036,0 1.25,0.55964 1.25,1.25 v 7.5 c 0,0.69036 0.55964,1.25 1.25,1.25 h 2.5 c 0.69036,0 1.25,0.55964 1.25,1.25 v 2.5 c 0,0.69036 0.55964,1.25 1.25,1.25 h 2.5 c 0.69036,0 1.25,0.55964 1.25,1.25 v 2.5 c 0,0.69036 0.55964,1.25 1.25,1.25 h 2.5 c 0.69036,0 1.25,0.55964 1.25,1.25 v 2.5 c 0,0.69036 -0.55964,1.25 -1.25,1.25 h -7.5 c -0.69036,0 -1.25,-0.55964 -1.25,-1.25 v -2.5 c 0,-0.69036 -0.55964,-1.25 -1.25,-1.25 h -2.5 c -0.69036,0 -1.25,0.55964 -1.25,1.25 v 7.5 c 0,0.69036 -0.55964,1.25 -1.25,1.25 z m -15,0 h -2.5 c -0.69036,0 -1.25,-0.55964 -1.25,-1.25 v -2.5 c 0,-0.69036 -0.55964,-1.25 -1.25,-1.25 h -2.5 c -0.69036,0 -1.25,0.55964 -1.25,1.25 v 2.5 c 0,0.69036 -0.559644,1.25 -1.25,1.25 h -2.5 C 95.559644,225 95,224.44036 95,223.75 v -2.5 C 95,220.55964 94.440356,220 93.75,220 H 81.25 C 80.559644,220 80,219.44036 80,218.75 v -2.5 C 80,215.55964 79.440356,215 78.75,215 h -7.5 C 70.559644,215 70,214.44036 70,213.75 v -2.5 C 70,210.55964 69.440356,210 68.75,210 h -2.5 c -0.690356,0 -1.25,0.55964 -1.25,1.25 v 2.5 c 0,0.69036 -0.559644,1.25 -1.25,1.25 h -2.5 C 60.559644,215 60,214.44036 60,213.75 v -7.5 c 0,-0.69036 0.559644,-1.25 1.25,-1.25 h 7.5 c 0.690356,0 1.25,-0.55964 1.25,-1.25 v -7.5 C 70,195.55964 69.440356,195 68.75,195 h -7.5 C 60.559644,195 60,194.44036 60,193.75 v -7.5 C 60,185.55964 59.440356,185 58.75,185 H 41.25 C 40.559644,185 40,184.44036 40,183.75 v -2.5 c 0,-0.69036 0.559644,-1.25 1.25,-1.25 h 22.5 c 0.690356,0 1.25,0.55964 1.25,1.25 v 7.5 c 0,0.69036 0.559644,1.25 1.25,1.25 h 7.5 c 0.690356,0 1.25,0.55964 1.25,1.25 v 2.5 c 0,0.69036 0.559644,1.25 1.25,1.25 h 2.5 c 0.690356,0 1.25,0.55964 1.25,1.25 v 2.5 c 0,0.69036 0.559644,1.25 1.25,1.25 h 2.5 c 0.690356,0 1.25,-0.55964 1.25,-1.25 v -2.5 C 85,195.55964 84.440356,195 83.75,195 h -2.5 C 80.559644,195 80,194.44036 80,193.75 v -7.5 c 0,-0.69036 0.559644,-1.25 1.25,-1.25 h 2.5 c 0.690356,0 1.25,0.55964 1.25,1.25 v 2.5 c 0,0.69036 0.559644,1.25 1.25,1.25 h 7.5 c 0.690356,0 1.25,-0.55964 1.25,-1.25 v -12.5 C 95,175.55964 94.440356,175 93.75,175 h -2.5 c -0.690356,0 -1.25,0.55964 -1.25,1.25 v 7.5 c 0,0.69036 -0.559644,1.25 -1.25,1.25 h -2.5 C 85.559644,185 85,184.44036 85,183.75 v -12.5 c 0,-0.69036 0.559644,-1.25 1.25,-1.25 h 2.5 c 0.690356,0 1.25,-0.55964 1.25,-1.25 v -2.5 c 0,-0.69036 0.559644,-1.25 1.25,-1.25 h 2.5 c 0.690356,0 1.25,0.55964 1.25,1.25 v 2.5 c 0,0.69036 0.559644,1.25 1.25,1.25 h 2.5 c 0.690356,0 1.25,-0.55964 1.25,-1.25 v -2.5 c 0,-0.69036 0.55964,-1.25 1.25,-1.25 h 2.5 c 0.69036,0 1.25,0.55964 1.25,1.25 v 7.5 c 0,0.69036 -0.55964,1.25 -1.25,1.25 h -2.5 c -0.69036,0 -1.25,0.55964 -1.25,1.25 v 12.5 c 0,0.69036 0.55964,1.25 1.25,1.25 h 2.5 c 0.69036,0 1.25,0.55964 1.25,1.25 v 2.5 c 0,0.69036 -0.55964,1.25 -1.25,1.25 h -2.5 c -0.69036,0 -1.25,0.55964 -1.25,1.25 v 2.5 c 0,0.69036 0.55964,1.25 1.25,1.25 h 7.5 c 0.69036,0 1.25,0.55964 1.25,1.25 v 2.5 c 0,0.69036 -0.55964,1.25 -1.25,1.25 h -2.5 c -0.69036,0 -1.25,0.55964 -1.25,1.25 v 2.5 c 0,0.69036 -0.55964,1.25 -1.25,1.25 h -2.5 c -0.69036,0 -1.25,-0.55964 -1.25,-1.25 v -2.5 C 100,205.55964 99.440356,205 98.75,205 h -2.5 C 95.559644,205 95,204.44036 95,203.75 v -2.5 C 95,200.55964 94.440356,200 93.75,200 h -2.5 c -0.690356,0 -1.25,0.55964 -1.25,1.25 v 2.5 c 0,0.69036 -0.559644,1.25 -1.25,1.25 h -2.5 c -0.690356,0 -1.25,0.55964 -1.25,1.25 v 2.5 c 0,0.69036 0.559644,1.25 1.25,1.25 h 7.5 c 0.690356,0 1.25,0.55964 1.25,1.25 v 2.5 c 0,0.69036 0.559644,1.25 1.25,1.25 h 12.5 c 0.69036,0 1.25,0.55964 1.25,1.25 v 7.5 c 0,0.69036 -0.55964,1.25 -1.25,1.25 z m -30,0 H 66.25 C 65.559644,225 65,224.44036 65,223.75 v -7.5 c 0,-0.69036 0.559644,-1.25 1.25,-1.25 h 2.5 c 0.690356,0 1.25,0.55964 1.25,1.25 v 2.5 c 0,0.69036 0.559644,1.25 1.25,1.25 h 7.5 c 0.690356,0 1.25,0.55964 1.25,1.25 v 2.5 c 0,0.69036 -0.559644,1.25 -1.25,1.25 z m -25,0 H 21.25 C 20.559644,225 20,224.44036 20,223.75 v -32.5 c 0,-0.69036 0.559644,-1.25 1.25,-1.25 h 32.5 c 0.690356,0 1.25,0.55964 1.25,1.25 v 32.5 c 0,0.69036 -0.559644,1.25 -1.25,1.25 z m 150,-5 h -2.5 c -0.69036,0 -1.25,-0.55964 -1.25,-1.25 v -2.5 c 0,-0.69036 0.55964,-1.25 1.25,-1.25 h 2.5 c 0.69036,0 1.25,0.55964 1.25,1.25 v 2.5 c 0,0.69036 -0.55964,1.25 -1.25,1.25 z m -40,0 h -2.5 c -0.69036,0 -1.25,-0.55964 -1.25,-1.25 v -7.5 c 0,-0.69036 -0.55964,-1.25 -1.25,-1.25 h -12.5 c -0.69036,0 -1.25,0.55964 -1.25,1.25 v 2.5 c 0,0.69036 -0.55964,1.25 -1.25,1.25 h -2.5 c -0.69036,0 -1.25,-0.55964 -1.25,-1.25 v -7.5 c 0,-0.69036 0.55964,-1.25 1.25,-1.25 h 2.5 c 0.69036,0 1.25,-0.55964 1.25,-1.25 v -2.5 c 0,-0.69036 0.55964,-1.25 1.25,-1.25 h 2.5 c 0.69036,0 1.25,0.55964 1.25,1.25 v 2.5 c 0,0.69036 0.55964,1.25 1.25,1.25 h 7.5 c 0.69036,0 1.25,-0.55964 1.25,-1.25 v -2.5 c 0,-0.69036 0.55964,-1.25 1.25,-1.25 h 2.5 c 0.69036,0 1.25,0.55964 1.25,1.25 v 2.5 c 0,0.69036 0.55964,1.25 1.25,1.25 h 2.5 c 0.69036,0 1.25,0.55964 1.25,1.25 v 2.5 c 0,0.69036 0.55964,1.25 1.25,1.25 h 2.5 c 0.69036,0 1.25,0.55964 1.25,1.25 v 2.5 c 0,0.69036 -0.55964,1.25 -1.25,1.25 h -7.5 c -0.69036,0 -1.25,0.55964 -1.25,1.25 v 2.5 c 0,0.69036 -0.55964,1.25 -1.25,1.25 z M 50,218.75 v -22.5 C 50,195.55964 49.440356,195 48.75,195 h -22.5 c -0.690356,0 -1.25,0.55964 -1.25,1.25 v 22.5 c 0,0.69036 0.559644,1.25 1.25,1.25 h 22.5 c 0.690356,0 1.25,-0.55964 1.25,-1.25 z M 223.75,215 h -2.5 c -0.69036,0 -1.25,-0.55964 -1.25,-1.25 v -2.5 c 0,-0.69036 -0.55964,-1.25 -1.25,-1.25 h -7.5 c -0.69036,0 -1.25,-0.55964 -1.25,-1.25 v -7.5 c 0,-0.69036 0.55964,-1.25 1.25,-1.25 h 2.5 c 0.69036,0 1.25,0.55964 1.25,1.25 v 2.5 c 0,0.69036 0.55964,1.25 1.25,1.25 h 7.5 c 0.69036,0 1.25,0.55964 1.25,1.25 v 7.5 c 0,0.69036 -0.55964,1.25 -1.25,1.25 z m -25,0 h -2.5 c -0.69036,0 -1.25,-0.55964 -1.25,-1.25 v -2.5 c 0,-0.69036 0.55964,-1.25 1.25,-1.25 h 2.5 c 0.69036,0 1.25,0.55964 1.25,1.25 v 2.5 c 0,0.69036 -0.55964,1.25 -1.25,1.25 z m -85,0 h -2.5 c -0.69036,0 -1.25,-0.55964 -1.25,-1.25 v -7.5 c 0,-0.69036 0.55964,-1.25 1.25,-1.25 h 2.5 c 0.69036,0 1.25,0.55964 1.25,1.25 v 7.5 c 0,0.69036 -0.55964,1.25 -1.25,1.25 z m -70,0 H 31.25 C 30.559644,215 30,214.44036 30,213.75 v -12.5 c 0,-0.69036 0.559644,-1.25 1.25,-1.25 h 12.5 c 0.690356,0 1.25,0.55964 1.25,1.25 v 12.5 c 0,0.69036 -0.559644,1.25 -1.25,1.25 z m 160,-5 h -2.5 c -0.69036,0 -1.25,-0.55964 -1.25,-1.25 v -2.5 c 0,-0.69036 -0.55964,-1.25 -1.25,-1.25 h -17.5 c -0.69036,0 -1.25,-0.55964 -1.25,-1.25 v -7.5 c 0,-0.69036 -0.55964,-1.25 -1.25,-1.25 h -7.5 c -0.69036,0 -1.25,-0.55964 -1.25,-1.25 v -2.5 c 0,-0.69036 -0.55964,-1.25 -1.25,-1.25 h -2.5 c -0.69036,0 -1.25,0.55964 -1.25,1.25 v 2.5 c 0,0.69036 -0.55964,1.25 -1.25,1.25 h -2.5 c -0.69036,0 -1.25,-0.55964 -1.25,-1.25 v -7.5 c 0,-0.69036 0.55964,-1.25 1.25,-1.25 h 2.5 c 0.69036,0 1.25,-0.55964 1.25,-1.25 v -7.5 c 0,-0.69036 -0.55964,-1.25 -1.25,-1.25 h -12.5 c -0.69036,0 -1.25,0.55964 -1.25,1.25 v 2.5 c 0,0.69036 0.55964,1.25 1.25,1.25 h 2.5 c 0.69036,0 1.25,0.55964 1.25,1.25 v 7.5 c 0,0.69036 -0.55964,1.25 -1.25,1.25 h -2.5 c -0.69036,0 -1.25,0.55964 -1.25,1.25 v 2.5 c 0,0.69036 -0.55964,1.25 -1.25,1.25 h -2.5 c -0.69036,0 -1.25,-0.55964 -1.25,-1.25 v -2.5 c 0,-0.69036 -0.55964,-1.25 -1.25,-1.25 h -2.5 c -0.69036,0 -1.25,0.55964 -1.25,1.25 v 7.5 c 0,0.69036 -0.55964,1.25 -1.25,1.25 h -2.5 c -0.69036,0 -1.25,0.55964 -1.25,1.25 v 2.5 c 0,0.69036 -0.55964,1.25 -1.25,1.25 h -2.5 c -0.69036,0 -1.25,-0.55964 -1.25,-1.25 v -7.5 c 0,-0.69036 0.55964,-1.25 1.25,-1.25 h 2.5 c 0.69036,0 1.25,-0.55964 1.25,-1.25 v -12.5 c 0,-0.69036 0.55964,-1.25 1.25,-1.25 h 7.5 c 0.69036,0 1.25,-0.55964 1.25,-1.25 v -12.5 c 0,-0.69036 0.55964,-1.25 1.25,-1.25 h 2.5 c 0.69036,0 1.25,0.55964 1.25,1.25 v 2.5 c 0,0.69036 0.55964,1.25 1.25,1.25 h 7.5 c 0.69036,0 1.25,-0.55964 1.25,-1.25 v -2.5 c 0,-0.69036 -0.55964,-1.25 -1.25,-1.25 h -7.5 c -0.69036,0 -1.25,-0.55964 -1.25,-1.25 v -2.5 c 0,-0.69036 0.55964,-1.25 1.25,-1.25 h 7.5 c 0.69036,0 1.25,-0.55964 1.25,-1.25 v -7.5 c 0,-0.69036 -0.55964,-1.25 -1.25,-1.25 h -17.5 c -0.69036,0 -1.25,-0.55964 -1.25,-1.25 v -2.5 c 0,-0.69036 -0.55964,-1.25 -1.25,-1.25 h -7.5 c -0.69036,0 -1.25,0.55964 -1.25,1.25 v 2.5 c 0,0.69036 0.55964,1.25 1.25,1.25 h 2.5 c 0.69036,0 1.25,0.55964 1.25,1.25 v 2.5 c 0,0.69036 -0.55964,1.25 -1.25,1.25 h -2.5 c -0.69036,0 -1.25,0.55964 -1.25,1.25 v 2.5 c 0,0.69036 -0.55964,1.25 -1.25,1.25 h -2.5 c -0.69036,0 -1.25,-0.55964 -1.25,-1.25 v -17.5 c 0,-0.69036 0.55964,-1.25 1.25,-1.25 h 7.5 c 0.69036,0 1.25,-0.55964 1.25,-1.25 v -2.5 c 0,-0.69036 -0.55964,-1.25 -1.25,-1.25 h -2.5 c -0.69036,0 -1.25,-0.55964 -1.25,-1.25 v -2.5 c 0,-0.69036 0.55964,-1.25 1.25,-1.25 h 2.5 c 0.69036,0 1.25,-0.55964 1.25,-1.25 v -2.5 c 0,-0.69036 0.55964,-1.25 1.25,-1.25 h 2.5 c 0.69036,0 1.25,0.55964 1.25,1.25 v 7.5 c 0,0.69036 0.55964,1.25 1.25,1.25 h 2.5 c 0.69036,0 1.25,-0.55964 1.25,-1.25 v -7.5 c 0,-0.69036 0.55964,-1.25 1.25,-1.25 h 2.5 c 0.69036,0 1.25,0.55964 1.25,1.25 v 12.5 c 0,0.69036 0.55964,1.25 1.25,1.25 h 7.5 c 0.69036,0 1.25,0.55964 1.25,1.25 v 2.5 c 0,0.69036 0.55964,1.25 1.25,1.25 h 2.5 c 0.69036,0 1.25,0.55964 1.25,1.25 v 2.5 c 0,0.69036 0.55964,1.25 1.25,1.25 h 2.5 c 0.69036,0 1.25,-0.55964 1.25,-1.25 v -2.5 c 0,-0.69036 0.55964,-1.25 1.25,-1.25 h 2.5 c 0.69036,0 1.25,-0.55964 1.25,-1.25 v -2.5 c 0,-0.69036 -0.55964,-1.25 -1.25,-1.25 h -2.5 c -0.69036,0 -1.25,-0.55964 -1.25,-1.25 v -7.5 c 0,-0.69036 0.55964,-1.25 1.25,-1.25 h 2.5 c 0.69036,0 1.25,0.55964 1.25,1.25 v 2.5 c 0,0.69036 0.55964,1.25 1.25,1.25 h 22.5 c 0.69036,0 1.25,-0.55964 1.25,-1.25 v -7.5 c 0,-0.69036 0.55964,-1.25 1.25,-1.25 h 2.5 c 0.69036,0 1.25,-0.55964 1.25,-1.25 v -2.5 c 0,-0.69036 0.55964,-1.25 1.25,-1.25 h 2.5 c 0.69036,0 1.25,-0.55964 1.25,-1.25 v -2.5 c 0,-0.69036 0.55964,-1.25 1.25,-1.25 h 7.5 c 0.69036,0 1.25,0.55964 1.25,1.25 v 2.5 c 0,0.69036 0.55964,1.25 1.25,1.25 h 2.5 c 0.69036,0 1.25,0.55964 1.25,1.25 v 7.5 c 0,0.69036 -0.55964,1.25 -1.25,1.25 h -2.5 c -0.69036,0 -1.25,0.55964 -1.25,1.25 v 2.5 c 0,0.69036 -0.55964,1.25 -1.25,1.25 h -2.5 c -0.69036,0 -1.25,-0.55964 -1.25,-1.25 v -2.5 c 0,-0.69036 -0.55964,-1.25 -1.25,-1.25 h -7.5 c -0.69036,0 -1.25,0.55964 -1.25,1.25 v 7.5 c 0,0.69036 -0.55964,1.25 -1.25,1.25 h -2.5 c -0.69036,0 -1.25,0.55964 -1.25,1.25 v 2.5 c 0,0.69036 -0.55964,1.25 -1.25,1.25 h -2.5 c -0.69036,0 -1.25,-0.55964 -1.25,-1.25 v -2.5 c 0,-0.69036 -0.55964,-1.25 -1.25,-1.25 h -12.5 c -0.69036,0 -1.25,0.55964 -1.25,1.25 v 2.5 c 0,0.69036 0.55964,1.25 1.25,1.25 h 2.5 c 0.69036,0 1.25,0.55964 1.25,1.25 v 17.5 c 0,0.69036 0.55964,1.25 1.25,1.25 h 7.5 c 0.69036,0 1.25,0.55964 1.25,1.25 v 7.5 c 0,0.69036 0.55964,1.25 1.25,1.25 h 2.5 c 0.69036,0 1.25,0.55964 1.25,1.25 v 2.5 c 0,0.69036 0.55964,1.25 1.25,1.25 h 2.5 c 0.69036,0 1.25,0.55964 1.25,1.25 v 2.5 c 0,0.69036 0.55964,1.25 1.25,1.25 h 2.5 c 0.69036,0 1.25,-0.55964 1.25,-1.25 v -2.5 c 0,-0.69036 -0.55964,-1.25 -1.25,-1.25 h -2.5 c -0.69036,0 -1.25,-0.55964 -1.25,-1.25 v -2.5 c 0,-0.69036 -0.55964,-1.25 -1.25,-1.25 h -2.5 c -0.69036,0 -1.25,-0.55964 -1.25,-1.25 v -2.5 c 0,-0.69036 0.55964,-1.25 1.25,-1.25 h 7.5 c 0.69036,0 1.25,0.55964 1.25,1.25 v 2.5 c 0,0.69036 0.55964,1.25 1.25,1.25 h 7.5 c 0.69036,0 1.25,0.55964 1.25,1.25 v 2.5 c 0,0.69036 -0.55964,1.25 -1.25,1.25 h -2.5 c -0.69036,0 -1.25,0.55964 -1.25,1.25 v 2.5 c 0,0.69036 0.55964,1.25 1.25,1.25 h 2.5 c 0.69036,0 1.25,-0.55964 1.25,-1.25 v -2.5 c 0,-0.69036 0.55964,-1.25 1.25,-1.25 h 2.5 c 0.69036,0 1.25,0.55964 1.25,1.25 v 7.5 c 0,0.69036 -0.55964,1.25 -1.25,1.25 h -2.5 c -0.69036,0 -1.25,0.55964 -1.25,1.25 v 2.5 c 0,0.69036 0.55964,1.25 1.25,1.25 h 2.5 c 0.69036,0 1.25,0.55964 1.25,1.25 v 2.5 c 0,0.69036 -0.55964,1.25 -1.25,1.25 h -7.5 c -0.69036,0 -1.25,-0.55964 -1.25,-1.25 v -2.5 c 0,-0.69036 -0.55964,-1.25 -1.25,-1.25 h -7.5 c -0.69036,0 -1.25,0.55964 -1.25,1.25 v 12.5 c 0,0.69036 -0.55964,1.25 -1.25,1.25 z M 200,198.75 v -12.5 c 0,-0.69036 -0.55964,-1.25 -1.25,-1.25 h -12.5 c -0.69036,0 -1.25,0.55964 -1.25,1.25 v 12.5 c 0,0.69036 0.55964,1.25 1.25,1.25 h 12.5 c 0.69036,0 1.25,-0.55964 1.25,-1.25 z M 168.75,200 h -2.5 c -0.69036,0 -1.25,-0.55964 -1.25,-1.25 v -2.5 c 0,-0.69036 0.55964,-1.25 1.25,-1.25 h 2.5 c 0.69036,0 1.25,0.55964 1.25,1.25 v 2.5 c 0,0.69036 -0.55964,1.25 -1.25,1.25 z m -15,0 h -2.5 c -0.69036,0 -1.25,-0.55964 -1.25,-1.25 v -2.5 c 0,-0.69036 0.55964,-1.25 1.25,-1.25 h 2.5 c 0.69036,0 1.25,0.55964 1.25,1.25 v 2.5 c 0,0.69036 -0.55964,1.25 -1.25,1.25 z m -40,0 h -2.5 c -0.69036,0 -1.25,-0.55964 -1.25,-1.25 v -12.5 c 0,-0.69036 -0.55964,-1.25 -1.25,-1.25 h -2.5 c -0.69036,0 -1.25,-0.55964 -1.25,-1.25 v -7.5 c 0,-0.69036 0.55964,-1.25 1.25,-1.25 h 2.5 c 0.69036,0 1.25,0.55964 1.25,1.25 v 2.5 c 0,0.69036 0.55964,1.25 1.25,1.25 h 12.5 c 0.69036,0 1.25,0.55964 1.25,1.25 v 2.5 c 0,0.69036 -0.55964,1.25 -1.25,1.25 h -2.5 c -0.69036,0 -1.25,0.55964 -1.25,1.25 v 7.5 c 0,0.69036 -0.55964,1.25 -1.25,1.25 h -2.5 c -0.69036,0 -1.25,0.55964 -1.25,1.25 v 2.5 c 0,0.69036 -0.55964,1.25 -1.25,1.25 z m 80,-5 h -2.5 c -0.69036,0 -1.25,-0.55964 -1.25,-1.25 v -2.5 c 0,-0.69036 0.55964,-1.25 1.25,-1.25 h 2.5 c 0.69036,0 1.25,0.55964 1.25,1.25 v 2.5 c 0,0.69036 -0.55964,1.25 -1.25,1.25 z m -65,-5 h -2.5 c -0.69036,0 -1.25,-0.55964 -1.25,-1.25 v -2.5 c 0,-0.69036 0.55964,-1.25 1.25,-1.25 h 2.5 c 0.69036,0 1.25,0.55964 1.25,1.25 v 2.5 c 0,0.69036 -0.55964,1.25 -1.25,1.25 z M 180,183.75 v -2.5 c 0,-0.69036 0.55964,-1.25 1.25,-1.25 h 7.5 c 0.69036,0 1.25,-0.55964 1.25,-1.25 v -2.5 c 0,-0.69036 -0.55964,-1.25 -1.25,-1.25 h -2.5 c -0.69036,0 -1.25,-0.55964 -1.25,-1.25 v -2.5 c 0,-0.69036 -0.55964,-1.25 -1.25,-1.25 h -2.5 c -0.69036,0 -1.25,0.55964 -1.25,1.25 v 7.5 c 0,0.69036 -0.55964,1.25 -1.25,1.25 h -7.5 c -0.69036,0 -1.25,0.55964 -1.25,1.25 v 2.5 c 0,0.69036 0.55964,1.25 1.25,1.25 h 7.5 c 0.69036,0 1.25,-0.55964 1.25,-1.25 z M 78.75,185 h -7.5 C 70.559644,185 70,184.44036 70,183.75 v -7.5 c 0,-0.69036 0.559644,-1.25 1.25,-1.25 h 7.5 c 0.690356,0 1.25,0.55964 1.25,1.25 v 7.5 c 0,0.69036 -0.559644,1.25 -1.25,1.25 z m -45,0 h -7.5 C 25.559644,185 25,184.44036 25,183.75 v -2.5 c 0,-0.69036 0.559644,-1.25 1.25,-1.25 h 2.5 c 0.690356,0 1.25,-0.55964 1.25,-1.25 v -2.5 c 0,-0.69036 0.559644,-1.25 1.25,-1.25 h 2.5 c 0.690356,0 1.25,-0.55964 1.25,-1.25 v -2.5 C 35,170.55964 34.440356,170 33.75,170 h -2.5 C 30.559644,170 30,169.44036 30,168.75 v -7.5 C 30,160.55964 29.440356,160 28.75,160 h -7.5 C 20.559644,160 20,159.44036 20,158.75 v -12.5 c 0,-0.69036 0.559644,-1.25 1.25,-1.25 h 2.5 c 0.690356,0 1.25,-0.55964 1.25,-1.25 v -2.5 c 0,-0.69036 0.559644,-1.25 1.25,-1.25 h 2.5 c 0.690356,0 1.25,0.55964 1.25,1.25 v 7.5 c 0,0.69036 0.559644,1.25 1.25,1.25 h 7.5 c 0.690356,0 1.25,0.55964 1.25,1.25 v 2.5 c 0,0.69036 -0.559644,1.25 -1.25,1.25 h -2.5 c -0.690356,0 -1.25,0.55964 -1.25,1.25 v 2.5 c 0,0.69036 0.559644,1.25 1.25,1.25 h 7.5 c 0.690356,0 1.25,0.55964 1.25,1.25 v 2.5 c 0,0.69036 -0.559644,1.25 -1.25,1.25 h -2.5 c -0.690356,0 -1.25,0.55964 -1.25,1.25 v 12.5 c 0,0.69036 -0.559644,1.25 -1.25,1.25 h -2.5 c -0.690356,0 -1.25,0.55964 -1.25,1.25 v 2.5 c 0,0.69036 -0.559644,1.25 -1.25,1.25 z m 95,-5 h -2.5 c -0.69036,0 -1.25,-0.55964 -1.25,-1.25 v -2.5 c 0,-0.69036 0.55964,-1.25 1.25,-1.25 h 2.5 c 0.69036,0 1.25,0.55964 1.25,1.25 v 2.5 c 0,0.69036 -0.55964,1.25 -1.25,1.25 z m 10,-5 h -7.5 c -0.69036,0 -1.25,-0.55964 -1.25,-1.25 v -2.5 c 0,-0.69036 -0.55964,-1.25 -1.25,-1.25 h -12.5 c -0.69036,0 -1.25,0.55964 -1.25,1.25 v 2.5 c 0,0.69036 -0.55964,1.25 -1.25,1.25 h -2.5 c -0.69036,0 -1.25,-0.55964 -1.25,-1.25 v -12.5 c 0,-0.69036 -0.55964,-1.25 -1.25,-1.25 h -2.5 c -0.69036,0 -1.25,-0.55964 -1.25,-1.25 v -2.5 c 0,-0.69036 0.55964,-1.25 1.25,-1.25 h 12.5 c 0.69036,0 1.25,0.55964 1.25,1.25 v 2.5 c 0,0.69036 -0.55964,1.25 -1.25,1.25 h -2.5 c -0.69036,0 -1.25,0.55964 -1.25,1.25 v 2.5 c 0,0.69036 0.55964,1.25 1.25,1.25 h 17.5 c 0.69036,0 1.25,-0.55964 1.25,-1.25 v -2.5 c 0,-0.69036 0.55964,-1.25 1.25,-1.25 h 2.5 c 0.69036,0 1.25,0.55964 1.25,1.25 v 12.5 c 0,0.69036 -0.55964,1.25 -1.25,1.25 z m -75,0 h -2.5 C 60.559644,175 60,174.44036 60,173.75 v -2.5 c 0,-0.69036 0.559644,-1.25 1.25,-1.25 h 2.5 c 0.690356,0 1.25,0.55964 1.25,1.25 v 2.5 c 0,0.69036 -0.559644,1.25 -1.25,1.25 z m -10,0 h -7.5 C 45.559644,175 45,174.44036 45,173.75 v -7.5 c 0,-0.69036 0.559644,-1.25 1.25,-1.25 h 2.5 c 0.690356,0 1.25,0.55964 1.25,1.25 v 2.5 c 0,0.69036 0.559644,1.25 1.25,1.25 h 2.5 c 0.690356,0 1.25,0.55964 1.25,1.25 v 2.5 c 0,0.69036 -0.559644,1.25 -1.25,1.25 z m -30,0 h -2.5 C 20.559644,175 20,174.44036 20,173.75 v -2.5 c 0,-0.69036 0.559644,-1.25 1.25,-1.25 h 2.5 c 0.690356,0 1.25,0.55964 1.25,1.25 v 2.5 c 0,0.69036 -0.559644,1.25 -1.25,1.25 z m 195,-5 h -2.5 c -0.69036,0 -1.25,-0.55964 -1.25,-1.25 v -7.5 c 0,-0.69036 0.55964,-1.25 1.25,-1.25 h 2.5 c 0.69036,0 1.25,0.55964 1.25,1.25 v 7.5 c 0,0.69036 -0.55964,1.25 -1.25,1.25 z M 175,168.75 v -2.5 c 0,-0.69036 -0.55964,-1.25 -1.25,-1.25 h -2.5 c -0.69036,0 -1.25,-0.55964 -1.25,-1.25 v -2.5 c 0,-0.69036 0.55964,-1.25 1.25,-1.25 h 2.5 c 0.69036,0 1.25,-0.55964 1.25,-1.25 v -2.5 c 0,-0.69036 -0.55964,-1.25 -1.25,-1.25 h -7.5 c -0.69036,0 -1.25,0.55964 -1.25,1.25 v 12.5 c 0,0.69036 0.55964,1.25 1.25,1.25 h 7.5 c 0.69036,0 1.25,-0.55964 1.25,-1.25 z M 78.75,170 h -7.5 C 70.559644,170 70,169.44036 70,168.75 v -2.5 c 0,-0.69036 0.559644,-1.25 1.25,-1.25 h 7.5 c 0.690356,0 1.25,0.55964 1.25,1.25 v 2.5 c 0,0.69036 -0.559644,1.25 -1.25,1.25 z m -20,0 h -2.5 C 55.559644,170 55,169.44036 55,168.75 v -2.5 C 55,165.55964 54.440356,165 53.75,165 h -2.5 C 50.559644,165 50,164.44036 50,163.75 v -2.5 c 0,-0.69036 0.559644,-1.25 1.25,-1.25 h 2.5 c 0.690356,0 1.25,-0.55964 1.25,-1.25 v -2.5 c 0,-0.69036 0.559644,-1.25 1.25,-1.25 h 7.5 c 0.690356,0 1.25,-0.55964 1.25,-1.25 v -2.5 C 65,150.55964 64.440356,150 63.75,150 h -2.5 C 60.559644,150 60,149.44036 60,148.75 v -2.5 c 0,-0.69036 0.559644,-1.25 1.25,-1.25 h 7.5 c 0.690356,0 1.25,0.55964 1.25,1.25 v 2.5 c 0,0.69036 0.559644,1.25 1.25,1.25 h 2.5 c 0.690356,0 1.25,0.55964 1.25,1.25 v 2.5 c 0,0.69036 -0.559644,1.25 -1.25,1.25 h -2.5 c -0.690356,0 -1.25,0.55964 -1.25,1.25 v 7.5 c 0,0.69036 -0.559644,1.25 -1.25,1.25 h -2.5 C 65.559644,165 65,164.44036 65,163.75 v -2.5 C 65,160.55964 64.440356,160 63.75,160 h -2.5 c -0.690356,0 -1.25,0.55964 -1.25,1.25 v 7.5 c 0,0.69036 -0.559644,1.25 -1.25,1.25 z m 150,-5 h -12.5 c -0.69036,0 -1.25,-0.55964 -1.25,-1.25 v -2.5 c 0,-0.69036 0.55964,-1.25 1.25,-1.25 h 2.5 c 0.69036,0 1.25,-0.55964 1.25,-1.25 v -2.5 c 0,-0.69036 -0.55964,-1.25 -1.25,-1.25 h -7.5 c -0.69036,0 -1.25,-0.55964 -1.25,-1.25 v -7.5 c 0,-0.69036 0.55964,-1.25 1.25,-1.25 h 2.5 c 0.69036,0 1.25,0.55964 1.25,1.25 v 2.5 c 0,0.69036 0.55964,1.25 1.25,1.25 h 7.5 c 0.69036,0 1.25,-0.55964 1.25,-1.25 v -2.5 c 0,-0.69036 0.55964,-1.25 1.25,-1.25 h 2.5 c 0.69036,0 1.25,-0.55964 1.25,-1.25 v -2.5 c 0,-0.69036 0.55964,-1.25 1.25,-1.25 h 7.5 c 0.69036,0 1.25,0.55964 1.25,1.25 v 2.5 c 0,0.69036 -0.55964,1.25 -1.25,1.25 h -2.5 c -0.69036,0 -1.25,0.55964 -1.25,1.25 v 2.5 c 0,0.69036 -0.55964,1.25 -1.25,1.25 h -2.5 c -0.69036,0 -1.25,0.55964 -1.25,1.25 v 12.5 c 0,0.69036 -0.55964,1.25 -1.25,1.25 z m -110,0 h -2.5 C 95.559644,165 95,164.44036 95,163.75 v -12.5 C 95,150.55964 94.440356,150 93.75,150 H 76.25 C 75.559644,150 75,149.44036 75,148.75 v -7.5 c 0,-0.69036 0.559644,-1.25 1.25,-1.25 h 2.5 c 0.690356,0 1.25,0.55964 1.25,1.25 v 2.5 c 0,0.69036 0.559644,1.25 1.25,1.25 h 2.5 c 0.690356,0 1.25,-0.55964 1.25,-1.25 v -2.5 c 0,-0.69036 0.559644,-1.25 1.25,-1.25 h 2.5 c 0.690356,0 1.25,0.55964 1.25,1.25 v 2.5 c 0,0.69036 0.559644,1.25 1.25,1.25 h 2.5 c 0.690356,0 1.25,-0.55964 1.25,-1.25 v -7.5 C 95,135.55964 94.440356,135 93.75,135 h -2.5 C 90.559644,135 90,134.44036 90,133.75 v -2.5 C 90,130.55964 89.440356,130 88.75,130 h -12.5 c -0.690356,0 -1.25,0.55964 -1.25,1.25 v 2.5 c 0,0.69036 -0.559644,1.25 -1.25,1.25 h -2.5 C 70.559644,135 70,134.44036 70,133.75 v -7.5 c 0,-0.69036 0.559644,-1.25 1.25,-1.25 h 7.5 c 0.690356,0 1.25,-0.55964 1.25,-1.25 v -2.5 c 0,-0.69036 0.559644,-1.25 1.25,-1.25 h 2.5 c 0.690356,0 1.25,0.55964 1.25,1.25 v 2.5 c 0,0.69036 0.559644,1.25 1.25,1.25 h 7.5 c 0.690356,0 1.25,0.55964 1.25,1.25 v 2.5 c 0,0.69036 0.559644,1.25 1.25,1.25 h 2.5 c 0.690356,0 1.25,0.55964 1.25,1.25 v 7.5 c 0,0.69036 0.55964,1.25 1.25,1.25 h 7.5 c 0.69036,0 1.25,0.55964 1.25,1.25 v 2.5 c 0,0.69036 -0.55964,1.25 -1.25,1.25 h -7.5 c -0.69036,0 -1.25,0.55964 -1.25,1.25 v 2.5 c 0,0.69036 0.55964,1.25 1.25,1.25 h 2.5 c 0.69036,0 1.25,0.55964 1.25,1.25 v 2.5 c 0,0.69036 -0.55964,1.25 -1.25,1.25 h -2.5 c -0.69036,0 -1.25,0.55964 -1.25,1.25 v 7.5 c 0,0.69036 -0.559644,1.25 -1.25,1.25 z m -15,0 h -2.5 C 80.559644,165 80,164.44036 80,163.75 v -2.5 C 80,160.55964 79.440356,160 78.75,160 h -2.5 C 75.559644,160 75,159.44036 75,158.75 v -2.5 c 0,-0.69036 0.559644,-1.25 1.25,-1.25 h 12.5 c 0.690356,0 1.25,0.55964 1.25,1.25 v 2.5 c 0,0.69036 -0.559644,1.25 -1.25,1.25 h -2.5 c -0.690356,0 -1.25,0.55964 -1.25,1.25 v 2.5 c 0,0.69036 -0.559644,1.25 -1.25,1.25 z m 60,-5 h -2.5 c -0.69036,0 -1.25,-0.55964 -1.25,-1.25 v -2.5 c 0,-0.69036 0.55964,-1.25 1.25,-1.25 h 2.5 c 0.69036,0 1.25,0.55964 1.25,1.25 v 2.5 c 0,0.69036 -0.55964,1.25 -1.25,1.25 z m 80,-5 h -7.5 c -0.69036,0 -1.25,-0.55964 -1.25,-1.25 v -2.5 c 0,-0.69036 0.55964,-1.25 1.25,-1.25 h 2.5 c 0.69036,0 1.25,-0.55964 1.25,-1.25 v -2.5 c 0,-0.69036 0.55964,-1.25 1.25,-1.25 h 2.5 c 0.69036,0 1.25,0.55964 1.25,1.25 v 7.5 c 0,0.69036 -0.55964,1.25 -1.25,1.25 z m -170,0 h -7.5 C 45.559644,155 45,154.44036 45,153.75 v -2.5 c 0,-0.69036 0.559644,-1.25 1.25,-1.25 h 7.5 c 0.690356,0 1.25,0.55964 1.25,1.25 v 2.5 c 0,0.69036 -0.559644,1.25 -1.25,1.25 z m -10,-5 h -2.5 C 40.559644,150 40,149.44036 40,148.75 v -12.5 c 0,-0.69036 0.559644,-1.25 1.25,-1.25 h 2.5 c 0.690356,0 1.25,0.55964 1.25,1.25 v 2.5 c 0,0.69036 0.559644,1.25 1.25,1.25 h 7.5 c 0.690356,0 1.25,0.55964 1.25,1.25 v 2.5 c 0,0.69036 -0.559644,1.25 -1.25,1.25 h -7.5 c -0.690356,0 -1.25,0.55964 -1.25,1.25 v 2.5 c 0,0.69036 -0.559644,1.25 -1.25,1.25 z m 125,-5 h -2.5 c -0.69036,0 -1.25,-0.55964 -1.25,-1.25 v -2.5 c 0,-0.69036 0.55964,-1.25 1.25,-1.25 h 2.5 c 0.69036,0 1.25,0.55964 1.25,1.25 v 2.5 c 0,0.69036 -0.55964,1.25 -1.25,1.25 z m -50,0 h -2.5 c -0.69036,0 -1.25,-0.55964 -1.25,-1.25 v -2.5 c 0,-0.69036 0.55964,-1.25 1.25,-1.25 h 2.5 c 0.69036,0 1.25,0.55964 1.25,1.25 v 2.5 c 0,0.69036 -0.55964,1.25 -1.25,1.25 z m 105,-5 h -2.5 c -0.69036,0 -1.25,-0.55964 -1.25,-1.25 v -2.5 c 0,-0.69036 0.55964,-1.25 1.25,-1.25 h 2.5 c 0.69036,0 1.25,0.55964 1.25,1.25 v 2.5 c 0,0.69036 -0.55964,1.25 -1.25,1.25 z m -110,0 h -2.5 c -0.69036,0 -1.25,-0.55964 -1.25,-1.25 v -2.5 c 0,-0.69036 0.55964,-1.25 1.25,-1.25 h 2.5 c 0.69036,0 1.25,0.55964 1.25,1.25 v 2.5 c 0,0.69036 -0.55964,1.25 -1.25,1.25 z m -50,0 h -7.5 C 55.559644,140 55,139.44036 55,138.75 v -2.5 c 0,-0.69036 0.559644,-1.25 1.25,-1.25 h 7.5 c 0.690356,0 1.25,0.55964 1.25,1.25 v 2.5 c 0,0.69036 -0.559644,1.25 -1.25,1.25 z m -30,0 h -2.5 C 30.559644,140 30,139.44036 30,138.75 v -7.5 c 0,-0.69036 0.559644,-1.25 1.25,-1.25 h 2.5 c 0.690356,0 1.25,-0.55964 1.25,-1.25 v -7.5 c 0,-0.69036 0.559644,-1.25 1.25,-1.25 h 2.5 c 0.690356,0 1.25,0.55964 1.25,1.25 v 2.5 c 0,0.69036 0.559644,1.25 1.25,1.25 h 2.5 c 0.690356,0 1.25,-0.55964 1.25,-1.25 v -2.5 c 0,-0.69036 0.559644,-1.25 1.25,-1.25 h 7.5 c 0.690356,0 1.25,0.55964 1.25,1.25 v 2.5 c 0,0.69036 -0.559644,1.25 -1.25,1.25 h -2.5 c -0.690356,0 -1.25,0.55964 -1.25,1.25 v 2.5 c 0,0.69036 0.559644,1.25 1.25,1.25 h 2.5 c 0.690356,0 1.25,0.55964 1.25,1.25 v 2.5 c 0,0.69036 -0.559644,1.25 -1.25,1.25 h -7.5 C 45.559644,135 45,134.44036 45,133.75 v -2.5 C 45,130.55964 44.440356,130 43.75,130 h -2.5 c -0.690356,0 -1.25,0.55964 -1.25,1.25 v 2.5 c 0,0.69036 -0.559644,1.25 -1.25,1.25 h -2.5 c -0.690356,0 -1.25,0.55964 -1.25,1.25 v 2.5 c 0,0.69036 -0.559644,1.25 -1.25,1.25 z m 90,-5 h -2.5 c -0.69036,0 -1.25,-0.55964 -1.25,-1.25 v -2.5 c 0,-0.69036 -0.55964,-1.25 -1.25,-1.25 h -17.5 c -0.69036,0 -1.25,-0.55964 -1.25,-1.25 v -7.5 C 100,120.55964 99.440356,120 98.75,120 h -7.5 C 90.559644,120 90,119.44036 90,118.75 v -2.5 C 90,115.55964 89.440356,115 88.75,115 h -7.5 C 80.559644,115 80,114.44036 80,113.75 v -12.5 c 0,-0.69036 0.559644,-1.25 1.25,-1.25 h 2.5 c 0.690356,0 1.25,0.55964 1.25,1.25 v 7.5 c 0,0.69036 0.559644,1.25 1.25,1.25 h 2.5 c 0.690356,0 1.25,-0.55964 1.25,-1.25 v -2.5 c 0,-0.69036 0.559644,-1.25 1.25,-1.25 h 2.5 c 0.690356,0 1.25,0.55964 1.25,1.25 v 2.5 c 0,0.69036 0.559644,1.25 1.25,1.25 h 2.5 c 0.690356,0 1.25,-0.55964 1.25,-1.25 v -7.5 c 0,-0.69036 0.55964,-1.25 1.25,-1.25 h 2.5 c 0.69036,0 1.25,-0.559644 1.25,-1.25 v -2.5 C 105,95.559644 104.44036,95 103.75,95 h -2.5 C 100.55964,95 100,94.440356 100,93.75 v -2.5 c 0,-0.690356 0.55964,-1.25 1.25,-1.25 h 2.5 c 0.69036,0 1.25,-0.559644 1.25,-1.25 v -2.5 c 0,-0.690356 0.55964,-1.25 1.25,-1.25 h 2.5 c 0.69036,0 1.25,0.559644 1.25,1.25 v 17.5 c 0,0.69036 -0.55964,1.25 -1.25,1.25 h -2.5 c -0.69036,0 -1.25,0.55964 -1.25,1.25 v 2.5 c 0,0.69036 0.55964,1.25 1.25,1.25 h 2.5 c 0.69036,0 1.25,-0.55964 1.25,-1.25 v -2.5 c 0,-0.69036 0.55964,-1.25 1.25,-1.25 h 2.5 c 0.69036,0 1.25,0.55964 1.25,1.25 v 2.5 c 0,0.69036 0.55964,1.25 1.25,1.25 h 2.5 c 0.69036,0 1.25,0.55964 1.25,1.25 v 2.5 c 0,0.69036 -0.55964,1.25 -1.25,1.25 h -2.5 c -0.69036,0 -1.25,0.55964 -1.25,1.25 v 2.5 c 0,0.69036 0.55964,1.25 1.25,1.25 h 2.5 c 0.69036,0 1.25,-0.55964 1.25,-1.25 v -2.5 c 0,-0.69036 0.55964,-1.25 1.25,-1.25 h 2.5 c 0.69036,0 1.25,0.55964 1.25,1.25 v 2.5 c 0,0.69036 0.55964,1.25 1.25,1.25 h 7.5 c 0.69036,0 1.25,0.55964 1.25,1.25 v 2.5 c 0,0.69036 -0.55964,1.25 -1.25,1.25 h -7.5 c -0.69036,0 -1.25,0.55964 -1.25,1.25 v 7.5 c 0,0.69036 -0.55964,1.25 -1.25,1.25 z m 70,-5 h -7.5 c -0.69036,0 -1.25,-0.55964 -1.25,-1.25 v -17.5 c 0,-0.69036 -0.55964,-1.25 -1.25,-1.25 h -2.5 c -0.69036,0 -1.25,-0.55964 -1.25,-1.25 v -7.5 c 0,-0.69036 0.55964,-1.25 1.25,-1.25 h 2.5 c 0.69036,0 1.25,0.55964 1.25,1.25 v 2.5 c 0,0.69036 0.55964,1.25 1.25,1.25 h 2.5 c 0.69036,0 1.25,0.55964 1.25,1.25 v 7.5 c 0,0.69036 0.55964,1.25 1.25,1.25 h 7.5 c 0.69036,0 1.25,0.55964 1.25,1.25 v 2.5 c 0,0.69036 -0.55964,1.25 -1.25,1.25 h -2.5 c -0.69036,0 -1.25,0.55964 -1.25,1.25 v 7.5 c 0,0.69036 -0.55964,1.25 -1.25,1.25 z m -15,0 h -2.5 c -0.69036,0 -1.25,-0.55964 -1.25,-1.25 v -7.5 c 0,-0.69036 0.55964,-1.25 1.25,-1.25 h 2.5 c 0.69036,0 1.25,0.55964 1.25,1.25 v 7.5 c 0,0.69036 -0.55964,1.25 -1.25,1.25 z m -15,0 h -2.5 c -0.69036,0 -1.25,-0.55964 -1.25,-1.25 v -2.5 c 0,-0.69036 0.55964,-1.25 1.25,-1.25 h 2.5 c 0.69036,0 1.25,0.55964 1.25,1.25 v 2.5 c 0,0.69036 -0.55964,1.25 -1.25,1.25 z m -100,0 h -2.5 C 60.559644,130 60,129.44036 60,128.75 v -7.5 c 0,-0.69036 0.559644,-1.25 1.25,-1.25 h 2.5 c 0.690356,0 1.25,0.55964 1.25,1.25 v 7.5 c 0,0.69036 -0.559644,1.25 -1.25,1.25 z m -35,0 h -7.5 C 20.559644,130 20,129.44036 20,128.75 v -2.5 c 0,-0.69036 0.559644,-1.25 1.25,-1.25 h 7.5 c 0.690356,0 1.25,0.55964 1.25,1.25 v 2.5 c 0,0.69036 -0.559644,1.25 -1.25,1.25 z m 125,-5 h -2.5 c -0.69036,0 -1.25,-0.55964 -1.25,-1.25 v -7.5 c 0,-0.69036 0.55964,-1.25 1.25,-1.25 h 2.5 c 0.69036,0 1.25,-0.55964 1.25,-1.25 v -7.5 c 0,-0.69036 -0.55964,-1.25 -1.25,-1.25 h -7.5 c -0.69036,0 -1.25,-0.55964 -1.25,-1.25 v -2.5 c 0,-0.69036 0.55964,-1.25 1.25,-1.25 h 2.5 c 0.69036,0 1.25,-0.559644 1.25,-1.25 v -2.5 C 150,95.559644 149.44036,95 148.75,95 h -2.5 c -0.69036,0 -1.25,0.559644 -1.25,1.25 v 2.5 c 0,0.690356 -0.55964,1.25 -1.25,1.25 h -12.5 c -0.69036,0 -1.25,0.55964 -1.25,1.25 v 2.5 c 0,0.69036 -0.55964,1.25 -1.25,1.25 h -12.5 c -0.69036,0 -1.25,-0.55964 -1.25,-1.25 v -17.5 c 0,-0.690356 0.55964,-1.25 1.25,-1.25 h 2.5 c 0.69036,0 1.25,0.559644 1.25,1.25 v 2.5 c 0,0.690356 0.55964,1.25 1.25,1.25 h 2.5 c 0.69036,0 1.25,0.559644 1.25,1.25 v 2.5 c 0,0.690356 0.55964,1.25 1.25,1.25 h 2.5 c 0.69036,0 1.25,-0.559644 1.25,-1.25 v -2.5 C 130,90.559644 129.44036,90 128.75,90 h -2.5 C 125.55964,90 125,89.440356 125,88.75 v -7.5 c 0,-0.690356 0.55964,-1.25 1.25,-1.25 h 12.5 c 0.69036,0 1.25,0.559644 1.25,1.25 v 2.5 c 0,0.690356 -0.55964,1.25 -1.25,1.25 h -2.5 c -0.69036,0 -1.25,0.559644 -1.25,1.25 v 2.5 c 0,0.690356 0.55964,1.25 1.25,1.25 h 2.5 c 0.69036,0 1.25,-0.559644 1.25,-1.25 v -2.5 c 0,-0.690356 0.55964,-1.25 1.25,-1.25 h 7.5 c 0.69036,0 1.25,0.559644 1.25,1.25 v 2.5 c 0,0.690356 0.55964,1.25 1.25,1.25 h 7.5 c 0.69036,0 1.25,-0.559644 1.25,-1.25 v -2.5 c 0,-0.690356 0.55964,-1.25 1.25,-1.25 h 2.5 c 0.69036,0 1.25,-0.559644 1.25,-1.25 v -2.5 c 0,-0.690356 0.55964,-1.25 1.25,-1.25 h 2.5 c 0.69036,0 1.25,0.559644 1.25,1.25 v 12.5 c 0,0.690356 -0.55964,1.25 -1.25,1.25 h -2.5 c -0.69036,0 -1.25,0.559644 -1.25,1.25 v 2.5 c 0,0.690356 -0.55964,1.25 -1.25,1.25 h -2.5 C 160.55964,100 160,99.440356 160,98.75 v -2.5 C 160,95.559644 159.44036,95 158.75,95 h -2.5 c -0.69036,0 -1.25,0.559644 -1.25,1.25 v 2.5 c 0,0.690356 0.55964,1.25 1.25,1.25 h 2.5 c 0.69036,0 1.25,0.55964 1.25,1.25 v 12.5 c 0,0.69036 0.55964,1.25 1.25,1.25 h 7.5 c 0.69036,0 1.25,-0.55964 1.25,-1.25 v -17.5 c 0,-0.690356 0.55964,-1.25 1.25,-1.25 h 2.5 c 0.69036,0 1.25,0.559644 1.25,1.25 v 22.5 c 0,0.69036 -0.55964,1.25 -1.25,1.25 h -17.5 c -0.69036,0 -1.25,0.55964 -1.25,1.25 v 2.5 c 0,0.69036 -0.55964,1.25 -1.25,1.25 z m -15,-5 h -2.5 c -0.69036,0 -1.25,-0.55964 -1.25,-1.25 v -2.5 c 0,-0.69036 0.55964,-1.25 1.25,-1.25 h 2.5 c 0.69036,0 1.25,0.55964 1.25,1.25 v 2.5 c 0,0.69036 -0.55964,1.25 -1.25,1.25 z M 110,118.75 v -2.5 c 0,-0.69036 -0.55964,-1.25 -1.25,-1.25 h -2.5 c -0.69036,0 -1.25,0.55964 -1.25,1.25 v 2.5 c 0,0.69036 0.55964,1.25 1.25,1.25 h 2.5 c 0.69036,0 1.25,-0.55964 1.25,-1.25 z M 78.75,120 h -7.5 C 70.559644,120 70,119.44036 70,118.75 v -2.5 c 0,-0.69036 0.559644,-1.25 1.25,-1.25 h 7.5 c 0.690356,0 1.25,0.55964 1.25,1.25 v 2.5 c 0,0.69036 -0.559644,1.25 -1.25,1.25 z m -35,0 h -2.5 C 40.559644,120 40,119.44036 40,118.75 v -2.5 C 40,115.55964 39.440356,115 38.75,115 h -2.5 C 35.559644,115 35,114.44036 35,113.75 v -12.5 C 35,100.55964 34.440356,100 33.75,100 h -2.5 C 30.559644,100 30,99.440356 30,98.75 v -7.5 C 30,90.559644 30.559644,90 31.25,90 h 7.5 c 0.690356,0 1.25,0.559644 1.25,1.25 v 2.5 c 0,0.690356 0.559644,1.25 1.25,1.25 h 7.5 c 0.690356,0 1.25,0.559644 1.25,1.25 v 2.5 c 0,0.690356 -0.559644,1.25 -1.25,1.25 h -2.5 c -0.690356,0 -1.25,0.55964 -1.25,1.25 v 7.5 c 0,0.69036 0.559644,1.25 1.25,1.25 h 7.5 c 0.690356,0 1.25,0.55964 1.25,1.25 v 2.5 c 0,0.69036 -0.559644,1.25 -1.25,1.25 h -7.5 c -0.690356,0 -1.25,0.55964 -1.25,1.25 v 2.5 c 0,0.69036 -0.559644,1.25 -1.25,1.25 z m -10,0 h -2.5 C 30.559644,120 30,119.44036 30,118.75 v -2.5 c 0,-0.69036 0.559644,-1.25 1.25,-1.25 h 2.5 c 0.690356,0 1.25,0.55964 1.25,1.25 v 2.5 c 0,0.69036 -0.559644,1.25 -1.25,1.25 z m 175,-5 h -7.5 c -0.69036,0 -1.25,-0.55964 -1.25,-1.25 v -2.5 c 0,-0.69036 0.55964,-1.25 1.25,-1.25 h 7.5 c 0.69036,0 1.25,0.55964 1.25,1.25 v 2.5 c 0,0.69036 -0.55964,1.25 -1.25,1.25 z m -65,0 h -2.5 c -0.69036,0 -1.25,-0.55964 -1.25,-1.25 v -2.5 c 0,-0.69036 0.55964,-1.25 1.25,-1.25 h 2.5 c 0.69036,0 1.25,0.55964 1.25,1.25 v 2.5 c 0,0.69036 -0.55964,1.25 -1.25,1.25 z m -10,0 h -2.5 c -0.69036,0 -1.25,-0.55964 -1.25,-1.25 v -2.5 c 0,-0.69036 0.55964,-1.25 1.25,-1.25 h 2.5 c 0.69036,0 1.25,0.55964 1.25,1.25 v 2.5 c 0,0.69036 -0.55964,1.25 -1.25,1.25 z m 85,-5 h -2.5 c -0.69036,0 -1.25,-0.55964 -1.25,-1.25 v -2.5 c 0,-0.69036 0.55964,-1.25 1.25,-1.25 h 2.5 c 0.69036,0 1.25,0.55964 1.25,1.25 v 2.5 c 0,0.69036 -0.55964,1.25 -1.25,1.25 z m -20,0 h -2.5 c -0.69036,0 -1.25,-0.55964 -1.25,-1.25 v -2.5 c 0,-0.69036 0.55964,-1.25 1.25,-1.25 h 2.5 c 0.69036,0 1.25,0.55964 1.25,1.25 v 2.5 c 0,0.69036 -0.55964,1.25 -1.25,1.25 z m -130,0 h -7.5 C 60.559644,110 60,109.44036 60,108.75 V 96.25 C 60,95.559644 60.559644,95 61.25,95 h 2.5 c 0.690356,0 1.25,0.559644 1.25,1.25 v 7.5 c 0,0.69036 0.559644,1.25 1.25,1.25 h 2.5 c 0.690356,0 1.25,0.55964 1.25,1.25 v 2.5 c 0,0.69036 -0.559644,1.25 -1.25,1.25 z m -40,0 h -7.5 C 20.559644,110 20,109.44036 20,108.75 v -2.5 c 0,-0.69036 0.559644,-1.25 1.25,-1.25 h 7.5 c 0.690356,0 1.25,0.55964 1.25,1.25 v 2.5 c 0,0.69036 -0.559644,1.25 -1.25,1.25 z m 180,-5 h -7.5 c -0.69036,0 -1.25,-0.55964 -1.25,-1.25 v -2.5 c 0,-0.69036 0.55964,-1.25 1.25,-1.25 h 2.5 c 0.69036,0 1.25,-0.559644 1.25,-1.25 v -2.5 C 205,95.559644 204.44036,95 203.75,95 h -2.5 C 200.55964,95 200,94.440356 200,93.75 v -2.5 c 0,-0.690356 0.55964,-1.25 1.25,-1.25 h 2.5 c 0.69036,0 1.25,-0.559644 1.25,-1.25 v -7.5 c 0,-0.690356 0.55964,-1.25 1.25,-1.25 h 7.5 c 0.69036,0 1.25,0.559644 1.25,1.25 v 7.5 c 0,0.690356 -0.55964,1.25 -1.25,1.25 h -2.5 c -0.69036,0 -1.25,0.559644 -1.25,1.25 v 12.5 c 0,0.69036 -0.55964,1.25 -1.25,1.25 z m -155,0 h -2.5 C 50.559644,105 50,104.44036 50,103.75 v -2.5 c 0,-0.69036 0.559644,-1.25 1.25,-1.25 h 2.5 c 0.690356,0 1.25,0.55964 1.25,1.25 v 2.5 c 0,0.69036 -0.559644,1.25 -1.25,1.25 z m 170,-5 h -7.5 C 215.55964,100 215,99.440356 215,98.75 v -7.5 c 0,-0.690356 0.55964,-1.25 1.25,-1.25 h 2.5 c 0.69036,0 1.25,-0.559644 1.25,-1.25 v -7.5 c 0,-0.690356 0.55964,-1.25 1.25,-1.25 h 2.5 c 0.69036,0 1.25,0.559644 1.25,1.25 v 17.5 c 0,0.690356 -0.55964,1.25 -1.25,1.25 z m -25,0 h -7.5 C 190.55964,100 190,99.440356 190,98.75 v -7.5 c 0,-0.690356 0.55964,-1.25 1.25,-1.25 h 2.5 c 0.69036,0 1.25,0.559644 1.25,1.25 v 2.5 c 0,0.690356 0.55964,1.25 1.25,1.25 h 2.5 c 0.69036,0 1.25,0.559644 1.25,1.25 v 2.5 c 0,0.690356 -0.55964,1.25 -1.25,1.25 z m -110,0 h -2.5 C 85.559644,100 85,99.440356 85,98.75 v -2.5 C 85,95.559644 84.440356,95 83.75,95 h -2.5 C 80.559644,95 80,95.559644 80,96.25 v 2.5 c 0,0.690356 -0.559644,1.25 -1.25,1.25 h -7.5 C 70.559644,100 70,99.440356 70,98.75 V 86.25 C 70,85.559644 70.559644,85 71.25,85 h 17.5 c 0.690356,0 1.25,0.559644 1.25,1.25 v 12.5 c 0,0.690356 -0.559644,1.25 -1.25,1.25 z m -65,0 h -2.5 C 20.559644,100 20,99.440356 20,98.75 v -2.5 C 20,95.559644 20.559644,95 21.25,95 h 2.5 c 0.690356,0 1.25,0.559644 1.25,1.25 v 2.5 c 0,0.690356 -0.559644,1.25 -1.25,1.25 z m 160,-5 h -7.5 C 175.55964,95 175,94.440356 175,93.75 v -2.5 c 0,-0.690356 0.55964,-1.25 1.25,-1.25 h 2.5 c 0.69036,0 1.25,-0.559644 1.25,-1.25 v -2.5 C 180,85.559644 179.44036,85 178.75,85 h -2.5 C 175.55964,85 175,84.440356 175,83.75 v -2.5 c 0,-0.690356 0.55964,-1.25 1.25,-1.25 h 2.5 c 0.69036,0 1.25,-0.559644 1.25,-1.25 v -2.5 c 0,-0.690356 0.55964,-1.25 1.25,-1.25 h 2.5 c 0.69036,0 1.25,0.559644 1.25,1.25 v 17.5 c 0,0.690356 -0.55964,1.25 -1.25,1.25 z m -130,0 h -2.5 C 50.559644,95 50,94.440356 50,93.75 v -2.5 C 50,90.559644 50.559644,90 51.25,90 h 2.5 c 0.690356,0 1.25,0.559644 1.25,1.25 v 2.5 C 55,94.440356 54.440356,95 53.75,95 Z m 10,-5 h -2.5 C 60.559644,90 60,89.440356 60,88.75 v -2.5 C 60,85.559644 60.559644,85 61.25,85 h 2.5 c 0.690356,0 1.25,0.559644 1.25,1.25 v 2.5 C 65,89.440356 64.440356,90 63.75,90 Z m -15,0 h -2.5 C 45.559644,90 45,89.440356 45,88.75 v -2.5 C 45,85.559644 44.440356,85 43.75,85 h -7.5 C 35.559644,85 35,84.440356 35,83.75 v -7.5 C 35,75.559644 34.440356,75 33.75,75 h -2.5 C 30.559644,75 30,74.440356 30,73.75 v -2.5 C 30,70.559644 30.559644,70 31.25,70 h 7.5 C 39.440356,70 40,69.440356 40,68.75 v -2.5 C 40,65.559644 40.559644,65 41.25,65 h 2.5 c 0.690356,0 1.25,0.559644 1.25,1.25 v 7.5 c 0,0.690356 0.559644,1.25 1.25,1.25 h 2.5 c 0.690356,0 1.25,0.559644 1.25,1.25 v 2.5 c 0,0.690356 0.559644,1.25 1.25,1.25 h 7.5 c 0.690356,0 1.25,0.559644 1.25,1.25 v 2.5 C 60,84.440356 59.440356,85 58.75,85 h -7.5 C 50.559644,85 50,85.559644 50,86.25 v 2.5 C 50,89.440356 49.440356,90 48.75,90 Z m -20,0 h -2.5 C 25.559644,90 25,89.440356 25,88.75 v -2.5 C 25,85.559644 25.559644,85 26.25,85 h 2.5 c 0.690356,0 1.25,0.559644 1.25,1.25 v 2.5 C 30,89.440356 29.440356,90 28.75,90 Z m 165,-5 h -2.5 C 190.55964,85 190,84.440356 190,83.75 v -2.5 c 0,-0.690356 0.55964,-1.25 1.25,-1.25 h 2.5 c 0.69036,0 1.25,0.559644 1.25,1.25 v 2.5 c 0,0.690356 -0.55964,1.25 -1.25,1.25 z m -80,0 h -2.5 C 110.55964,85 110,84.440356 110,83.75 v -2.5 c 0,-0.690356 0.55964,-1.25 1.25,-1.25 h 2.5 c 0.69036,0 1.25,0.559644 1.25,1.25 v 2.5 c 0,0.690356 -0.55964,1.25 -1.25,1.25 z m -10,0 H 91.25 C 90.559644,85 90,84.440356 90,83.75 v -2.5 C 90,80.559644 89.440356,80 88.75,80 h -2.5 C 85.559644,80 85,79.440356 85,78.75 v -2.5 C 85,75.559644 84.440356,75 83.75,75 h -2.5 C 80.559644,75 80,74.440356 80,73.75 v -2.5 C 80,70.559644 79.440356,70 78.75,70 h -7.5 C 70.559644,70 70,69.440356 70,68.75 v -2.5 C 70,65.559644 70.559644,65 71.25,65 h 7.5 C 79.440356,65 80,64.440356 80,63.75 V 51.25 C 80,50.559644 80.559644,50 81.25,50 h 2.5 c 0.690356,0 1.25,0.559644 1.25,1.25 v 12.5 c 0,0.690356 0.559644,1.25 1.25,1.25 h 2.5 c 0.690356,0 1.25,0.559644 1.25,1.25 v 7.5 c 0,0.690356 0.559644,1.25 1.25,1.25 h 2.5 c 0.690356,0 1.25,0.559644 1.25,1.25 v 2.5 c 0,0.690356 0.559644,1.25 1.25,1.25 h 7.5 c 0.69036,0 1.25,0.559644 1.25,1.25 v 2.5 c 0,0.690356 -0.55964,1.25 -1.25,1.25 z m -35,0 h -2.5 C 65.559644,85 65,84.440356 65,83.75 v -2.5 C 65,80.559644 65.559644,80 66.25,80 h 2.5 c 0.690356,0 1.25,0.559644 1.25,1.25 v 2.5 C 70,84.440356 69.440356,85 68.75,85 Z m 105,-5 h -2.5 C 170.55964,80 170,79.440356 170,78.75 v -2.5 c 0,-0.690356 0.55964,-1.25 1.25,-1.25 h 2.5 c 0.69036,0 1.25,0.559644 1.25,1.25 v 2.5 c 0,0.690356 -0.55964,1.25 -1.25,1.25 z m -20,0 h -7.5 C 145.55964,80 145,79.440356 145,78.75 v -2.5 c 0,-0.690356 0.55964,-1.25 1.25,-1.25 h 7.5 c 0.69036,0 1.25,0.559644 1.25,1.25 v 2.5 c 0,0.690356 -0.55964,1.25 -1.25,1.25 z m -30,0 h -7.5 C 115.55964,80 115,79.440356 115,78.75 v -7.5 C 115,70.559644 114.44036,70 113.75,70 h -2.5 C 110.55964,70 110,69.440356 110,68.75 v -2.5 C 110,65.559644 109.44036,65 108.75,65 h -2.5 C 105.55964,65 105,64.440356 105,63.75 v -2.5 C 105,60.559644 104.44036,60 103.75,60 h -7.5 C 95.559644,60 95,59.440356 95,58.75 v -2.5 C 95,55.559644 95.559644,55 96.25,55 h 2.5 c 0.690356,0 1.25,-0.559644 1.25,-1.25 v -12.5 c 0,-0.690356 0.55964,-1.25 1.25,-1.25 h 7.5 c 0.69036,0 1.25,0.559644 1.25,1.25 v 2.5 c 0,0.690356 -0.55964,1.25 -1.25,1.25 h -2.5 c -0.69036,0 -1.25,0.559644 -1.25,1.25 v 7.5 c 0,0.690356 0.55964,1.25 1.25,1.25 h 2.5 c 0.69036,0 1.25,-0.559644 1.25,-1.25 v -2.5 c 0,-0.690356 0.55964,-1.25 1.25,-1.25 h 2.5 c 0.69036,0 1.25,0.559644 1.25,1.25 v 2.5 c 0,0.690356 0.55964,1.25 1.25,1.25 h 2.5 c 0.69036,0 1.25,0.559644 1.25,1.25 v 2.5 c 0,0.690356 -0.55964,1.25 -1.25,1.25 h -2.5 c -0.69036,0 -1.25,0.559644 -1.25,1.25 v 2.5 c 0,0.690356 0.55964,1.25 1.25,1.25 h 7.5 c 0.69036,0 1.25,0.559644 1.25,1.25 v 12.5 c 0,0.690356 -0.55964,1.25 -1.25,1.25 z m -45,0 h -2.5 C 75.559644,80 75,79.440356 75,78.75 v -2.5 C 75,75.559644 75.559644,75 76.25,75 h 2.5 c 0.690356,0 1.25,0.559644 1.25,1.25 v 2.5 C 80,79.440356 79.440356,80 78.75,80 Z m -15,0 h -2.5 C 60.559644,80 60,79.440356 60,78.75 v -7.5 C 60,70.559644 59.440356,70 58.75,70 h -2.5 C 55.559644,70 55,69.440356 55,68.75 v -2.5 C 55,65.559644 54.440356,65 53.75,65 h -2.5 C 50.559644,65 50,64.440356 50,63.75 v -2.5 C 50,60.559644 50.559644,60 51.25,60 h 7.5 C 59.440356,60 60,59.440356 60,58.75 v -7.5 C 60,50.559644 60.559644,50 61.25,50 h 2.5 c 0.690356,0 1.25,0.559644 1.25,1.25 v 7.5 c 0,0.690356 0.559644,1.25 1.25,1.25 h 2.5 c 0.690356,0 1.25,0.559644 1.25,1.25 v 2.5 C 70,64.440356 69.440356,65 68.75,65 h -2.5 C 65.559644,65 65,65.559644 65,66.25 v 12.5 C 65,79.440356 64.440356,80 63.75,80 Z m -35,0 h -2.5 C 25.559644,80 25,79.440356 25,78.75 v -2.5 C 25,75.559644 25.559644,75 26.25,75 h 2.5 c 0.690356,0 1.25,0.559644 1.25,1.25 v 2.5 C 30,79.440356 29.440356,80 28.75,80 Z m 190,-5 h -7.5 C 210.55964,75 210,74.440356 210,73.75 v -7.5 c 0,-0.690356 0.55964,-1.25 1.25,-1.25 h 12.5 c 0.69036,0 1.25,0.559644 1.25,1.25 v 2.5 c 0,0.690356 -0.55964,1.25 -1.25,1.25 h -2.5 c -0.69036,0 -1.25,0.559644 -1.25,1.25 v 2.5 c 0,0.690356 -0.55964,1.25 -1.25,1.25 z m -15,0 h -17.5 C 185.55964,75 185,74.440356 185,73.75 v -2.5 C 185,70.559644 184.44036,70 183.75,70 h -7.5 C 175.55964,70 175,69.440356 175,68.75 v -2.5 c 0,-0.690356 0.55964,-1.25 1.25,-1.25 h 2.5 c 0.69036,0 1.25,-0.559644 1.25,-1.25 v -2.5 c 0,-0.690356 0.55964,-1.25 1.25,-1.25 h 12.5 c 0.69036,0 1.25,0.559644 1.25,1.25 v 2.5 c 0,0.690356 0.55964,1.25 1.25,1.25 h 2.5 c 0.69036,0 1.25,-0.559644 1.25,-1.25 v -2.5 c 0,-0.690356 0.55964,-1.25 1.25,-1.25 h 2.5 c 0.69036,0 1.25,0.559644 1.25,1.25 v 12.5 c 0,0.690356 -0.55964,1.25 -1.25,1.25 z m -40,0 h -2.5 C 160.55964,75 160,74.440356 160,73.75 V 61.25 C 160,60.559644 159.44036,60 158.75,60 h -7.5 C 150.55964,60 150,59.440356 150,58.75 v -7.5 C 150,50.559644 149.44036,50 148.75,50 h -2.5 c -0.69036,0 -1.25,0.559644 -1.25,1.25 v 7.5 c 0,0.690356 0.55964,1.25 1.25,1.25 h 2.5 c 0.69036,0 1.25,0.559644 1.25,1.25 v 2.5 c 0,0.690356 0.55964,1.25 1.25,1.25 h 2.5 c 0.69036,0 1.25,0.559644 1.25,1.25 v 2.5 c 0,0.690356 -0.55964,1.25 -1.25,1.25 h -12.5 C 140.55964,70 140,69.440356 140,68.75 v -2.5 C 140,65.559644 139.44036,65 138.75,65 h -2.5 C 135.55964,65 135,64.440356 135,63.75 v -2.5 C 135,60.559644 134.44036,60 133.75,60 h -2.5 C 130.55964,60 130,59.440356 130,58.75 v -7.5 c 0,-0.690356 0.55964,-1.25 1.25,-1.25 h 2.5 c 0.69036,0 1.25,0.559644 1.25,1.25 v 2.5 c 0,0.690356 0.55964,1.25 1.25,1.25 h 2.5 c 0.69036,0 1.25,-0.559644 1.25,-1.25 v -7.5 c 0,-0.690356 0.55964,-1.25 1.25,-1.25 h 12.5 c 0.69036,0 1.25,0.559644 1.25,1.25 v 7.5 c 0,0.690356 0.55964,1.25 1.25,1.25 h 2.5 c 0.69036,0 1.25,-0.559644 1.25,-1.25 v -2.5 c 0,-0.690356 0.55964,-1.25 1.25,-1.25 h 2.5 c 0.69036,0 1.25,0.559644 1.25,1.25 v 2.5 c 0,0.690356 0.55964,1.25 1.25,1.25 h 2.5 c 0.69036,0 1.25,-0.559644 1.25,-1.25 v -2.5 C 170,50.559644 169.44036,50 168.75,50 h -2.5 C 165.55964,50 165,49.440356 165,48.75 v -2.5 C 165,45.559644 164.44036,45 163.75,45 h -7.5 C 155.55964,45 155,44.440356 155,43.75 v -2.5 c 0,-0.690356 0.55964,-1.25 1.25,-1.25 h 12.5 c 0.69036,0 1.25,0.559644 1.25,1.25 v 2.5 c 0,0.690356 0.55964,1.25 1.25,1.25 h 2.5 c 0.69036,0 1.25,-0.559644 1.25,-1.25 v -2.5 c 0,-0.690356 0.55964,-1.25 1.25,-1.25 h 2.5 c 0.69036,0 1.25,0.559644 1.25,1.25 v 2.5 c 0,0.690356 0.55964,1.25 1.25,1.25 h 2.5 c 0.69036,0 1.25,0.559644 1.25,1.25 v 7.5 c 0,0.690356 -0.55964,1.25 -1.25,1.25 h -2.5 C 180.55964,55 180,54.440356 180,53.75 v -2.5 C 180,50.559644 179.44036,50 178.75,50 h -2.5 c -0.69036,0 -1.25,0.559644 -1.25,1.25 v 2.5 c 0,0.690356 0.55964,1.25 1.25,1.25 h 2.5 c 0.69036,0 1.25,0.559644 1.25,1.25 v 2.5 c 0,0.690356 -0.55964,1.25 -1.25,1.25 h -2.5 c -0.69036,0 -1.25,0.559644 -1.25,1.25 v 2.5 c 0,0.690356 -0.55964,1.25 -1.25,1.25 h -7.5 c -0.69036,0 -1.25,0.559644 -1.25,1.25 v 7.5 c 0,0.690356 -0.55964,1.25 -1.25,1.25 z m -25,0 h -7.5 C 130.55964,75 130,74.440356 130,73.75 v -2.5 c 0,-0.690356 0.55964,-1.25 1.25,-1.25 h 7.5 c 0.69036,0 1.25,0.559644 1.25,1.25 v 2.5 c 0,0.690356 -0.55964,1.25 -1.25,1.25 z m -30,0 h -7.5 C 100.55964,75 100,74.440356 100,73.75 v -7.5 c 0,-0.690356 0.55964,-1.25 1.25,-1.25 h 2.5 c 0.69036,0 1.25,0.559644 1.25,1.25 v 2.5 c 0,0.690356 0.55964,1.25 1.25,1.25 h 2.5 c 0.69036,0 1.25,0.559644 1.25,1.25 v 2.5 c 0,0.690356 -0.55964,1.25 -1.25,1.25 z m -55,0 h -2.5 C 50.559644,75 50,74.440356 50,73.75 v -2.5 C 50,70.559644 50.559644,70 51.25,70 h 2.5 c 0.690356,0 1.25,0.559644 1.25,1.25 v 2.5 C 55,74.440356 54.440356,75 53.75,75 Z m -25,-5 h -2.5 C 25.559644,70 25,69.440356 25,68.75 v -2.5 C 25,65.559644 25.559644,65 26.25,65 h 2.5 c 0.690356,0 1.25,0.559644 1.25,1.25 v 2.5 C 30,69.440356 29.440356,70 28.75,70 Z m 100,-5 h -2.5 C 125.55964,65 125,64.440356 125,63.75 v -2.5 c 0,-0.690356 0.55964,-1.25 1.25,-1.25 h 2.5 c 0.69036,0 1.25,0.559644 1.25,1.25 v 2.5 c 0,0.690356 -0.55964,1.25 -1.25,1.25 z m -90,0 h -7.5 C 30.559644,65 30,64.440356 30,63.75 v -2.5 C 30,60.559644 30.559644,60 31.25,60 h 7.5 c 0.690356,0 1.25,0.559644 1.25,1.25 v 2.5 C 40,64.440356 39.440356,65 38.75,65 Z m 185,-10 h -32.5 C 190.55964,55 190,54.440356 190,53.75 v -32.5 c 0,-0.690356 0.55964,-1.25 1.25,-1.25 h 32.5 c 0.69036,0 1.25,0.559644 1.25,1.25 v 32.5 c 0,0.690356 -0.55964,1.25 -1.25,1.25 z m -100,0 h -2.5 C 120.55964,55 120,54.440356 120,53.75 v -2.5 c 0,-0.690356 0.55964,-1.25 1.25,-1.25 h 2.5 c 0.69036,0 1.25,0.559644 1.25,1.25 v 2.5 c 0,0.690356 -0.55964,1.25 -1.25,1.25 z m -30,0 h -2.5 C 90.559644,55 90,54.440356 90,53.75 v -2.5 C 90,50.559644 89.440356,50 88.75,50 h -2.5 C 85.559644,50 85,49.440356 85,48.75 v -2.5 C 85,45.559644 84.440356,45 83.75,45 h -2.5 C 80.559644,45 80,44.440356 80,43.75 v -2.5 C 80,40.559644 80.559644,40 81.25,40 h 7.5 c 0.690356,0 1.25,0.559644 1.25,1.25 v 2.5 c 0,0.690356 0.559644,1.25 1.25,1.25 h 2.5 c 0.690356,0 1.25,0.559644 1.25,1.25 v 7.5 C 95,54.440356 94.440356,55 93.75,55 Z m -20,0 h -2.5 C 70.559644,55 70,54.440356 70,53.75 v -2.5 C 70,50.559644 70.559644,50 71.25,50 h 2.5 c 0.690356,0 1.25,0.559644 1.25,1.25 v 2.5 C 75,54.440356 74.440356,55 73.75,55 Z m -20,0 H 21.25 C 20.559644,55 20,54.440356 20,53.75 V 21.25 C 20,20.559644 20.559644,20 21.25,20 h 32.5 c 0.690356,0 1.25,0.559644 1.25,1.25 v 32.5 C 55,54.440356 54.440356,55 53.75,55 Z M 220,48.75 V 26.25 C 220,25.559644 219.44036,25 218.75,25 h -22.5 c -0.69036,0 -1.25,0.559644 -1.25,1.25 v 22.5 c 0,0.690356 0.55964,1.25 1.25,1.25 h 22.5 c 0.69036,0 1.25,-0.559644 1.25,-1.25 z M 118.75,50 h -2.5 C 115.55964,50 115,49.440356 115,48.75 v -2.5 c 0,-0.690356 0.55964,-1.25 1.25,-1.25 h 2.5 c 0.69036,0 1.25,0.559644 1.25,1.25 v 2.5 c 0,0.690356 -0.55964,1.25 -1.25,1.25 z m -40,0 h -2.5 C 75.559644,50 75,49.440356 75,48.75 v -2.5 C 75,45.559644 75.559644,45 76.25,45 h 2.5 c 0.690356,0 1.25,0.559644 1.25,1.25 v 2.5 C 80,49.440356 79.440356,50 78.75,50 Z M 50,48.75 V 26.25 C 50,25.559644 49.440356,25 48.75,25 H 26.25 C 25.559644,25 25,25.559644 25,26.25 v 22.5 c 0,0.690356 0.559644,1.25 1.25,1.25 h 22.5 C 49.440356,50 50,49.440356 50,48.75 Z M 213.75,45 h -12.5 C 200.55964,45 200,44.440356 200,43.75 v -12.5 c 0,-0.690356 0.55964,-1.25 1.25,-1.25 h 12.5 c 0.69036,0 1.25,0.559644 1.25,1.25 v 12.5 c 0,0.690356 -0.55964,1.25 -1.25,1.25 z m -75,0 h -17.5 C 120.55964,45 120,44.440356 120,43.75 v -2.5 C 120,40.559644 119.44036,40 118.75,40 h -7.5 C 110.55964,40 110,39.440356 110,38.75 v -2.5 c 0,-0.690356 0.55964,-1.25 1.25,-1.25 h 7.5 c 0.69036,0 1.25,-0.559644 1.25,-1.25 v -2.5 c 0,-0.690356 0.55964,-1.25 1.25,-1.25 h 2.5 c 0.69036,0 1.25,0.559644 1.25,1.25 v 7.5 c 0,0.690356 0.55964,1.25 1.25,1.25 h 12.5 c 0.69036,0 1.25,0.559644 1.25,1.25 v 2.5 c 0,0.690356 -0.55964,1.25 -1.25,1.25 z m -75,0 h -2.5 C 60.559644,45 60,44.440356 60,43.75 v -2.5 C 60,40.559644 60.559644,40 61.25,40 h 2.5 c 0.690356,0 1.25,0.559644 1.25,1.25 v 2.5 C 65,44.440356 64.440356,45 63.75,45 Z m -20,0 H 31.25 C 30.559644,45 30,44.440356 30,43.75 V 31.25 C 30,30.559644 30.559644,30 31.25,30 h 12.5 c 0.690356,0 1.25,0.559644 1.25,1.25 v 12.5 C 45,44.440356 44.440356,45 43.75,45 Z m 140,-5 h -2.5 C 180.55964,40 180,39.440356 180,38.75 v -2.5 C 180,35.559644 179.44036,35 178.75,35 h -2.5 C 175.55964,35 175,34.440356 175,33.75 v -2.5 c 0,-0.690356 0.55964,-1.25 1.25,-1.25 h 7.5 c 0.69036,0 1.25,0.559644 1.25,1.25 v 7.5 c 0,0.690356 -0.55964,1.25 -1.25,1.25 z m -90,0 h -2.5 C 90.559644,40 90,39.440356 90,38.75 v -2.5 C 90,35.559644 90.559644,35 91.25,35 h 2.5 c 0.690356,0 1.25,0.559644 1.25,1.25 v 2.5 C 95,39.440356 94.440356,40 93.75,40 Z m 75,-5 h -7.5 C 160.55964,35 160,34.440356 160,33.75 v -12.5 c 0,-0.690356 0.55964,-1.25 1.25,-1.25 h 7.5 c 0.69036,0 1.25,0.559644 1.25,1.25 v 2.5 c 0,0.690356 -0.55964,1.25 -1.25,1.25 h -2.5 c -0.69036,0 -1.25,0.559644 -1.25,1.25 v 2.5 c 0,0.690356 0.55964,1.25 1.25,1.25 h 2.5 c 0.69036,0 1.25,0.559644 1.25,1.25 v 2.5 c 0,0.690356 -0.55964,1.25 -1.25,1.25 z m -15,0 h -7.5 C 145.55964,35 145,34.440356 145,33.75 v -2.5 c 0,-0.690356 0.55964,-1.25 1.25,-1.25 h 2.5 c 0.69036,0 1.25,-0.559644 1.25,-1.25 v -2.5 c 0,-0.690356 0.55964,-1.25 1.25,-1.25 h 2.5 c 0.69036,0 1.25,0.559644 1.25,1.25 v 7.5 c 0,0.690356 -0.55964,1.25 -1.25,1.25 z m -15,0 h -2.5 C 135.55964,35 135,34.440356 135,33.75 v -2.5 C 135,30.559644 134.44036,30 133.75,30 h -7.5 C 125.55964,30 125,29.440356 125,28.75 v -2.5 c 0,-0.690356 0.55964,-1.25 1.25,-1.25 h 12.5 c 0.69036,0 1.25,-0.559644 1.25,-1.25 v -2.5 c 0,-0.690356 0.55964,-1.25 1.25,-1.25 h 2.5 c 0.69036,0 1.25,0.559644 1.25,1.25 v 7.5 c 0,0.690356 -0.55964,1.25 -1.25,1.25 h -2.5 c -0.69036,0 -1.25,0.559644 -1.25,1.25 v 2.5 c 0,0.690356 -0.55964,1.25 -1.25,1.25 z m -35,0 h -7.5 C 95.559644,35 95,34.440356 95,33.75 v -2.5 C 95,30.559644 95.559644,30 96.25,30 h 2.5 c 0.690356,0 1.25,-0.559644 1.25,-1.25 v -2.5 c 0,-0.690356 0.55964,-1.25 1.25,-1.25 h 12.5 c 0.69036,0 1.25,0.559644 1.25,1.25 v 2.5 c 0,0.690356 -0.55964,1.25 -1.25,1.25 h -7.5 c -0.69036,0 -1.25,0.559644 -1.25,1.25 v 2.5 c 0,0.690356 -0.55964,1.25 -1.25,1.25 z m -20,0 H 66.25 C 65.559644,35 65,34.440356 65,33.75 v -7.5 C 65,25.559644 65.559644,25 66.25,25 h 2.5 c 0.690356,0 1.25,0.559644 1.25,1.25 v 2.5 c 0,0.690356 0.559644,1.25 1.25,1.25 h 2.5 C 74.440356,30 75,29.440356 75,28.75 v -2.5 C 75,25.559644 75.559644,25 76.25,25 h 2.5 c 0.690356,0 1.25,0.559644 1.25,1.25 v 2.5 c 0,0.690356 0.559644,1.25 1.25,1.25 h 2.5 c 0.690356,0 1.25,0.559644 1.25,1.25 v 2.5 C 85,34.440356 84.440356,35 83.75,35 Z m 90,-5 h -2.5 C 170.55964,30 170,29.440356 170,28.75 v -2.5 c 0,-0.690356 0.55964,-1.25 1.25,-1.25 h 2.5 c 0.69036,0 1.25,0.559644 1.25,1.25 v 2.5 c 0,0.690356 -0.55964,1.25 -1.25,1.25 z m -80,0 h -2.5 C 90.559644,30 90,29.440356 90,28.75 v -2.5 C 90,25.559644 90.559644,25 91.25,25 h 2.5 c 0.690356,0 1.25,0.559644 1.25,1.25 v 2.5 C 95,29.440356 94.440356,30 93.75,30 Z m 90,-5 h -7.5 C 175.55964,25 175,24.440356 175,23.75 v -2.5 c 0,-0.690356 0.55964,-1.25 1.25,-1.25 h 7.5 c 0.69036,0 1.25,0.559644 1.25,1.25 v 2.5 c 0,0.690356 -0.55964,1.25 -1.25,1.25 z m -65,0 h -2.5 C 115.55964,25 115,24.440356 115,23.75 v -2.5 c 0,-0.690356 0.55964,-1.25 1.25,-1.25 h 2.5 c 0.69036,0 1.25,0.559644 1.25,1.25 v 2.5 c 0,0.690356 -0.55964,1.25 -1.25,1.25 z m -20,0 h -2.5 C 95.559644,25 95,24.440356 95,23.75 v -2.5 C 95,20.559644 95.559644,20 96.25,20 h 2.5 c 0.690356,0 1.25,0.559644 1.25,1.25 v 2.5 C 100,24.440356 99.440356,25 98.75,25 Z m -10,0 h -7.5 C 80.559644,25 80,24.440356 80,23.75 v -2.5 C 80,20.559644 80.559644,20 81.25,20 h 7.5 c 0.690356,0 1.25,0.559644 1.25,1.25 v 2.5 C 90,24.440356 89.440356,25 88.75,25 Z m -15,0 h -2.5 C 70.559644,25 70,24.440356 70,23.75 v -2.5 C 70,20.559644 70.559644,20 71.25,20 h 2.5 c 0.690356,0 1.25,0.559644 1.25,1.25 v 2.5 C 75,24.440356 74.440356,25 73.75,25 Z"
           id="path2" />
      </g>
    </g>
  </g>
</svg>
